HIERARCHY
ROOT Hips
{
    OFFSET   0.000000   0.000000   0.000000
    CHANNELS 6 Xposition Yposition Zposition Zrotation Xrotation Yrotation
    JOINT Chest
    {
        OFFSET   0.000000   8.007230   0.000000
        CHANNELS 3 Zrotation Xrotation Yrotation
        JOINT Chest2
        {
            OFFSET   0.000000  22.077100   0.000000
            CHANNELS 3 Zrotation Xrotation Yrotation
            JOINT Neck
            {
                OFFSET   0.000000  23.255100   0.000000
                CHANNELS 3 Zrotation Xrotation Yrotation
                JOINT Head
                {
                    OFFSET   0.000000  14.370100   1.956600
                    CHANNELS 3 Zrotation Xrotation Yrotation
                    End Site
                    {
                        OFFSET   0.000000  19.566000   0.000000
                    }
                }
            }
            JOINT LeftCollar
            {
                OFFSET   3.911900  19.017000  -0.467063
                CHANNELS 3 Zrotation Xrotation Yrotation
                JOINT LeftShoulder
                {
                    OFFSET  10.383700   0.000000   0.000000
                    CHANNELS 3 Zrotation Xrotation Yrotation
                    JOINT LeftElbow
                    {
                        OFFSET  26.662100   0.001193   0.000980
                        CHANNELS 3 Zrotation Xrotation Yrotation
                        JOINT LeftWrist
                        {
                            OFFSET  28.869000  -0.000059  -0.000082
                            CHANNELS 3 Zrotation Xrotation Yrotation
                            JOINT LeftFinger0
                            {
                                OFFSET   2.044650  -2.323450   3.252850
                                CHANNELS 3 Zrotation Xrotation Yrotation
                                JOINT LeftFinger01
                                {
                                    OFFSET   3.088130   0.000000   0.000000
                                    CHANNELS 3 Zrotation Xrotation Yrotation
                                    JOINT LeftFinger02
                                    {
                                        OFFSET   2.639460   0.000000   0.000000
                                        CHANNELS 3 Zrotation Xrotation Yrotation
                                        End Site
                                        {
                                            OFFSET   2.582190   0.000000   0.000000
                                        }
                                    }
                                }
                            }
                            JOINT LeftFinger1
                            {
                                OFFSET   8.364480   0.000000   3.252850
                                CHANNELS 3 Zrotation Xrotation Yrotation
                                JOINT LeftFinger11
                                {
                                    OFFSET   4.646930   0.000000   0.000000
                                    CHANNELS 3 Zrotation Xrotation Yrotation
                                    JOINT LeftFinger12
                                    {
                                        OFFSET   2.323470   0.000000   0.000000
                                        CHANNELS 3 Zrotation Xrotation Yrotation
                                        End Site
                                        {
                                            OFFSET   2.273050   0.000000   0.000000
                                        }
                                    }
                                }
                            }
                            JOINT LeftFinger2
                            {
                                OFFSET   8.364490   0.000016   1.078090
                                CHANNELS 3 Zrotation Xrotation Yrotation
                                JOINT LeftFinger21
                                {
                                    OFFSET   5.111610   0.000000   0.000000
                                    CHANNELS 3 Zrotation Xrotation Yrotation
                                    JOINT LeftFinger22
                                    {
                                        OFFSET   2.788150   0.000016   0.000000
                                        CHANNELS 3 Zrotation Xrotation Yrotation
                                        End Site
                                        {
                                            OFFSET   2.727660   0.000000   0.000000
                                        }
                                    }
                                }
                            }
                            JOINT LeftFinger3
                            {
                                OFFSET   7.899780   0.000015  -1.078090
                                CHANNELS 3 Zrotation Xrotation Yrotation
                                JOINT LeftFinger31
                                {
                                    OFFSET   4.646930   0.000000   0.000000
                                    CHANNELS 3 Zrotation Xrotation Yrotation
                                    JOINT LeftFinger32
                                    {
                                        OFFSET   2.323470   0.000000   0.000000
                                        CHANNELS 3 Zrotation Xrotation Yrotation
                                        End Site
                                        {
                                            OFFSET   2.273050   0.000000   0.000000
                                        }
                                    }
                                }
                            }
                            JOINT LeftFinger4
                            {
                                OFFSET   7.435090   0.000000  -3.252850
                                CHANNELS 3 Zrotation Xrotation Yrotation
                                JOINT LeftFinger41
                                {
                                    OFFSET   3.717550   0.000000   0.000000
                                    CHANNELS 3 Zrotation Xrotation Yrotation
                                    JOINT LeftFinger42
                                    {
                                        OFFSET   1.858770   0.000000   0.000000
                                        CHANNELS 3 Zrotation Xrotation Yrotation
                                        End Site
                                        {
                                            OFFSET   1.818440   0.000000   0.000000
                                        }
                                    }
                                }
                            }
                        }
                    }
                }
            }
            JOINT RightCollar
            {
                OFFSET  -3.911910  19.017000  -0.467062
                CHANNELS 3 Zrotation Xrotation Yrotation
                JOINT RightShoulder
                {
                    OFFSET -10.383700   0.000014   0.000000
                    CHANNELS 3 Zrotation Xrotation Yrotation
                    JOINT RightElbow
                    {
                        OFFSET -26.662100   0.001225   0.001091
                        CHANNELS 3 Zrotation Xrotation Yrotation
                        JOINT RightWrist
                        {
                            OFFSET -28.869000  -0.000020  -0.000085
                            CHANNELS 3 Zrotation Xrotation Yrotation
                            JOINT RightFinger0
                            {
                                OFFSET  -2.044650  -2.323490   3.252850
                                CHANNELS 3 Zrotation Xrotation Yrotation
                                JOINT RightFinger01
                                {
                                    OFFSET  -3.088130   0.000000   0.000000
                                    CHANNELS 3 Zrotation Xrotation Yrotation
                                    JOINT RightFinger02
                                    {
                                        OFFSET  -2.639460   0.000000   0.000000
                                        CHANNELS 3 Zrotation Xrotation Yrotation
                                        End Site
                                        {
                                            OFFSET  -2.582190   0.000000   0.000000
                                        }
                                    }
                                }
                            }
                            JOINT RightFinger1
                            {
                                OFFSET  -8.364480   0.000000   3.252850
                                CHANNELS 3 Zrotation Xrotation Yrotation
                                JOINT RightFinger11
                                {
                                    OFFSET  -4.646930   0.000000   0.000000
                                    CHANNELS 3 Zrotation Xrotation Yrotation
                                    JOINT RightFinger12
                                    {
                                        OFFSET  -2.323470   0.000000   0.000000
                                        CHANNELS 3 Zrotation Xrotation Yrotation
                                        End Site
                                        {
                                            OFFSET  -2.273050   0.000000   0.000000
                                        }
                                    }
                                }
                            }
                            JOINT RightFinger2
                            {
                                OFFSET  -8.364480   0.000000   1.078090
                                CHANNELS 3 Zrotation Xrotation Yrotation
                                JOINT RightFinger21
                                {
                                    OFFSET  -5.111620   0.000000   0.000000
                                    CHANNELS 3 Zrotation Xrotation Yrotation
                                    JOINT RightFinger22
                                    {
                                        OFFSET  -2.788160   0.000000   0.000000
                                        CHANNELS 3 Zrotation Xrotation Yrotation
                                        End Site
                                        {
                                            OFFSET  -2.727660   0.000000   0.000000
                                        }
                                    }
                                }
                            }
                            JOINT RightFinger3
                            {
                                OFFSET  -7.899780   0.000000  -1.078090
                                CHANNELS 3 Zrotation Xrotation Yrotation
                                JOINT RightFinger31
                                {
                                    OFFSET  -4.646930   0.000000   0.000000
                                    CHANNELS 3 Zrotation Xrotation Yrotation
                                    JOINT RightFinger32
                                    {
                                        OFFSET  -2.323470   0.000000   0.000000
                                        CHANNELS 3 Zrotation Xrotation Yrotation
                                        End Site
                                        {
                                            OFFSET  -2.273050   0.000000   0.000000
                                        }
                                    }
                                }
                            }
                            JOINT RightFinger4
                            {
                                OFFSET  -7.435090   0.000000  -3.252850
                                CHANNELS 3 Zrotation Xrotation Yrotation
                                JOINT RightFinger41
                                {
                                    OFFSET  -3.717550   0.000000   0.000000
                                    CHANNELS 3 Zrotation Xrotation Yrotation
                                    JOINT RightFinger42
                                    {
                                        OFFSET  -1.858760   0.000000   0.000000
                                        CHANNELS 3 Zrotation Xrotation Yrotation
                                        End Site
                                        {
                                            OFFSET  -1.818440   0.000000   0.000000
                                        }
                                    }
                                }
                            }
                        }
                    }
                }
            }
        }
    }
    JOINT LeftHip
    {
        OFFSET   9.783030   0.000000   0.000000
        CHANNELS 3 Zrotation Xrotation Yrotation
        JOINT LeftKnee
        {
            OFFSET   0.000063 -41.789100   0.000608
            CHANNELS 3 Zrotation Xrotation Yrotation
            JOINT LeftAnkle
            {
                OFFSET   0.000048 -41.133200  -0.000184
                CHANNELS 3 Zrotation Xrotation Yrotation
                JOINT LeftToe
                {
                    OFFSET   0.000000  -6.358960  14.674500
                    CHANNELS 3 Zrotation Xrotation Yrotation
                    End Site
                    {
                        OFFSET   0.000000   0.000000   3.913200
                    }
                }
            }
        }
    }
    JOINT RightHip
    {
        OFFSET  -9.783030   0.000000   0.000000
        CHANNELS 3 Zrotation Xrotation Yrotation
        JOINT RightKnee
        {
            OFFSET   0.000071 -41.789100   0.001239
            CHANNELS 3 Zrotation Xrotation Yrotation
            JOINT RightAnkle
            {
                OFFSET   0.000037 -41.133200  -0.000166
                CHANNELS 3 Zrotation Xrotation Yrotation
                JOINT RightToe
                {
                    OFFSET   0.000000  -6.358960  14.674500
                    CHANNELS 3 Zrotation Xrotation Yrotation
                    End Site
                    {
                        OFFSET   0.000000   0.000000   3.913200
                    }
                }
            }
        }
    }
}
MOTION
Frames: 4
Frame Time:   0.016667
 -3.202540  89.247500   4.463200  -4.175160 -15.911800  -4.135510   1.377280  10.012400   3.786740   2.118230  20.092200   7.499870   4.329670  -1.692530   0.135223   7.129760  -3.373430  -2.545410  -3.261000  -4.154550  -5.181270 -67.037400  21.900400  -7.519730  -1.500470  -1.737740 -21.848700  15.451200 -12.305900   9.448250  41.405600  36.432000 -63.959900 -32.102300  -0.015635  -0.004980 -11.051200  -0.003743   0.002011 -29.865500   4.953950  -8.562410 -24.739000   0.009397  -0.003065 -17.317300   0.006733  -0.000790 -28.141100  -1.600000   2.986550 -33.314300  -0.004345  -0.004668 -22.187300  -0.007864  -0.002921 -28.045100  -1.596030   2.988960 -32.592000   0.000397  -0.001366 -21.706300   0.001864  -0.002552 -30.315500  -1.717480   2.921960 -45.544900  -0.004112  -0.004294 -30.333000  -0.001754  -0.002474   3.704250 -16.718200   2.573860   5.969910 -26.835100  75.962900 -20.516700  20.898900  13.482300 -48.805400  18.154600   1.980190 -46.063300  39.875400  81.586200  20.955100  -0.156188  -0.056212   5.477580  -0.081503  -0.019637   8.155610   1.798680  13.675500   6.943170  -0.043966   0.026620   4.860240  -0.032400   0.020981   9.268550   0.418031   1.323260   9.218410  -0.061370   0.108630   6.139450  -0.027801   0.079088   6.393000  -1.691280 -13.634100   6.643970  -0.065600   0.208173   4.424850  -0.025768   0.142054  13.780800  -4.414640 -16.961200  21.853700  -0.076846   0.381324  14.554400   0.036092   0.251017   5.354080  20.927400   5.712310   2.118100   0.354019   8.454590  -5.522150  -4.836100   0.416625  -0.000000   0.000000   0.000000   4.968540  19.159800  -6.710290   0.544110   2.773760  -8.108990  -1.909630  -7.096010   3.273260   0.000000   0.000000   0.000000
 -3.148150  89.244900   4.466000  -4.192490 -15.853000  -4.175660   1.359950   9.956760   3.874840   2.069500  19.981700   7.684190   4.402530  -1.660440   0.134787   7.249310  -3.307430  -2.633670  -3.287850  -4.143680  -5.151410 -67.022700  22.067600  -7.592110  -1.480930  -1.731130 -21.674400  15.218300 -11.427400   9.293480  41.397900  36.221400 -63.585200 -31.975800  -0.009105  -0.003287 -10.987900  -0.003641   0.001791 -29.694200   5.029950  -8.739580 -24.610400   0.006211  -0.003169 -17.227300   0.005467  -0.000822 -28.162300  -1.213990   2.266150 -33.295800  -0.003321  -0.004814 -22.175000  -0.008287  -0.003038 -28.021900  -1.209330   2.268880 -32.296600   0.000402  -0.001457 -21.509600   0.001234  -0.002546 -30.115800  -1.292280   2.223380 -45.210800   0.002631  -0.004464 -30.110400  -0.001231  -0.002660   3.674540 -16.746700   2.578900   5.896260 -27.333700  75.694400 -20.249200  21.805500  13.274800 -45.905500  20.260500   3.514060 -43.473300  38.590300  81.987300  21.955800  -0.195054  -0.095114   5.977990  -0.102996  -0.035016   8.404160   2.392050  15.134200   7.126540  -0.044029   0.002976   4.988590  -0.033069   0.004016  12.305600   1.134380   4.588910  12.256900  -0.020858   0.097759   8.163120  -0.004864   0.061906   9.447740  -2.156820 -12.425000   9.691610  -0.063654   0.253535   6.454540  -0.012968   0.170519  17.377300  -4.633030 -15.002400  27.170100  -0.035015   0.409278  18.095100   0.071886   0.256564   5.314850  20.880300   5.686110   2.125160   0.331877   8.465910  -5.489520  -4.824520   0.501136  -0.000000   0.000000   0.000000   4.914450  19.123400  -6.755150   0.563995   2.715150  -8.101570  -1.864850  -7.040430   3.390570  -0.000000   0.000000  -0.000000
 -3.081760  89.242000   4.471610  -4.181870 -15.790600  -4.151570   1.316370   9.899900   3.964960   1.967620  19.865600   7.878300   4.531750  -1.643510   0.134482   7.462150  -3.270020  -2.710880  -3.307220  -4.066770  -5.249780 -67.031800  21.940300  -7.531570  -1.431030  -1.567490 -21.694200  15.423800 -11.007900   9.189770  41.252900  35.908000 -63.066900 -31.944600  -0.000846   0.000304 -10.972200  -0.003542   0.001596 -29.699800   5.047560  -8.747830 -24.617700   0.002914  -0.003255 -17.232400   0.004241  -0.000853 -28.213400  -0.913525   1.702470 -33.594700  -0.002983  -0.004960 -22.374100  -0.008722  -0.003157 -28.036100  -0.908014   1.705510 -32.304600   0.000357  -0.001547 -21.514900   0.000600  -0.002543 -30.138700  -0.968357   1.672780 -45.215600   0.003023  -0.004649 -30.113600  -0.000936  -0.002855   3.622720 -16.791500   2.385850   4.393560 -27.632100  74.428600 -20.622300  21.814100  14.003200 -38.462700  21.741900   1.212200 -41.270000  36.437500  80.905100  24.068000  -0.167547  -0.116729   7.034040  -0.091395  -0.046731  13.141700   3.834290  14.746400  11.139900  -0.021121  -0.066955   7.797940  -0.026613  -0.043153  17.586600   1.098540   4.265200  17.051100   0.026515  -0.011220  11.356000   0.006423  -0.014867  15.237400  -2.895240 -10.720800  14.797800  -0.034474   0.183951   9.855290   0.001109   0.122468  22.159200  -4.508060 -11.530400  34.015400   0.015187   0.245509  22.654200   0.067360   0.141839   5.273430  20.800500   5.686630   2.124820   0.333807   8.434650  -5.458500  -4.811100   0.539363  -0.000000   0.000000  -0.000000   4.860850  19.080000  -6.767710   0.579646   2.661040  -8.142620  -1.824930  -6.989450   3.466660  -0.000000   0.000000  -0.000000
 -3.009860  89.240300   4.475540  -4.163370 -15.735600  -4.097610   1.270300   9.846160   4.016100   1.867700  19.756400   7.988460   4.656600  -1.628190   0.133825   7.666980  -3.235960  -2.751940  -3.326650  -3.951440  -5.347900 -67.062300  21.696800  -7.384110  -1.366270  -1.327910 -21.764300  15.874700 -10.888700   9.143390  41.059700  35.568100 -62.552200 -31.940100   0.004455   0.002786 -10.970000  -0.003455   0.001429 -29.763000   5.050080  -8.749010 -24.668900   0.000076  -0.003324 -17.268200   0.002988  -0.000885 -28.275400  -0.762740   1.418430 -34.096500  -0.002935  -0.005108 -22.708300  -0.009171  -0.003280 -28.043400  -0.756686   1.421640 -32.360900   0.000216  -0.001638 -21.552400  -0.000064  -0.002543 -30.154500  -0.808299   1.393870 -45.249600   0.003079  -0.004850 -30.136200  -0.000793  -0.003060   3.542950 -16.836800   2.097340   2.253140 -27.675900  72.778100 -21.494600  21.708400  15.287600 -27.907000  22.351400  -3.160440 -36.856000  33.741500  78.181700  26.525100  -0.116886  -0.126241   8.262580  -0.067771  -0.053028  20.991500   5.012540  13.435300  17.719100   0.001787  -0.118170  12.403300  -0.020157  -0.077496  23.179100   0.845373   3.031890  23.218100   0.056310  -0.110881  15.463200   0.010865  -0.076915  21.521600  -3.402310  -8.871690  21.355600  -0.006962   0.083820  14.222800   0.009811   0.057112  27.549100  -4.302050  -8.144100  41.800500   0.046984   0.068150  27.839100   0.052562   0.027113   5.238860  20.718100   5.697820   2.123220   0.335763   8.374360  -5.426630  -4.794950   0.548337  -0.000000   0.000000   0.000000   4.815740  19.037400  -6.768020   0.586825   2.615920  -8.214290  -1.790730  -6.945660   3.498090   0.000000   0.000000  -0.000000
